{
    "accessors" : [
        {
            "bufferView" : 0, 
            "componentType" : 5123, 
            "count" : 492, 
            "max" : [
                327
            ], 
            "min" : [
                0
            ], 
            "type" : "SCALAR"
        }, 
        {
            "bufferView" : 1, 
            "componentType" : 5126, 
            "count" : 328, 
            "max" : [
                5.6125664710998535, 
                6.027734279632568, 
                3.8379175662994385
            ], 
            "min" : [
                -5.902279376983643, 
                -3.393810510635376, 
                -5.45827579498291
            ], 
            "type" : "VEC3"
        }, 
        {
            "bufferView" : 2, 
            "componentType" : 5126, 
            "count" : 328, 
            "max" : [
                0.9938047528266907, 
                0.9988707900047302, 
                0.9987487196922302
            ], 
            "min" : [
                -0.9985961318016052, 
                -0.9998779296875, 
                -0.9935606122016907
            ], 
            "type" : "VEC3"
        }, 
        {
            "bufferView" : 3, 
            "componentType" : 5126, 
            "count" : 328, 
            "max" : [
                0.4226447343826294, 
                0.042340993881225586
            ], 
            "min" : [
                0.3858058452606201, 
                0.005502104759216309
            ], 
            "type" : "VEC2"
        }
    ], 
    "asset" : {
        "generator" : "Khronos Blender glTF 2.0 exporter", 
        "version" : "2.0"
    }, 
    "bufferViews" : [
        {
            "buffer" : 0, 
            "byteLength" : 984, 
            "byteOffset" : 0, 
            "target" : 34963
        }, 
        {
            "buffer" : 0, 
            "byteLength" : 3936, 
            "byteOffset" : 984, 
            "target" : 34962
        }, 
        {
            "buffer" : 0, 
            "byteLength" : 3936, 
            "byteOffset" : 4920, 
            "target" : 34962
        }, 
        {
            "buffer" : 0, 
            "byteLength" : 2624, 
            "byteOffset" : 8856, 
            "target" : 34962
        }
    ], 
    "buffers" : [
        {
            "byteLength" : 11480, 
            "uri" : "BigRock3.bin"
        }
    ], 
    "meshes" : [
        {
            "name" : "BigRock3", 
            "primitives" : [
                {
                    "attributes" : {
                        "NORMAL" : 2, 
                        "POSITION" : 1, 
                        "TEXCOORD_0" : 3
                    }, 
                    "indices" : 0
                }
            ]
        }
    ], 
    "nodes" : [
        {
            "mesh" : 0, 
            "name" : "BigRock3", 
            "rotation" : [
                0.0, 
                -0.6228196620941162, 
                -0.0, 
                0.7823654413223267
            ], 
            "scale" : [
                0.9999999403953552, 
                1.0, 
                0.9999999403953552
            ], 
            "translation" : [
                28.547683715820312, 
                1.0132789611816406e-06, 
                -6.764305114746094
            ]
        }
    ], 
    "scene" : 0, 
    "scenes" : [
        {
            "name" : "Scene", 
            "nodes" : [
                0
            ]
        }
    ]
}
