{
    "accessors" : [
        {
            "bufferView" : 0, 
            "componentType" : 5123, 
            "count" : 564, 
            "max" : [
                383
            ], 
            "min" : [
                0
            ], 
            "type" : "SCALAR"
        }, 
        {
            "bufferView" : 1, 
            "componentType" : 5126, 
            "count" : 384, 
            "max" : [
                6.553175926208496, 
                7.808724403381348, 
                7.154357433319092
            ], 
            "min" : [
                -6.903636455535889, 
                -7.263418674468994, 
                -6.299990177154541
            ], 
            "type" : "VEC3"
        }, 
        {
            "bufferView" : 2, 
            "componentType" : 5126, 
            "count" : 384, 
            "max" : [
                0.9947813153266907, 
                0.9851069450378418, 
                0.999542236328125
            ], 
            "min" : [
                -0.9985045790672302, 
                -0.99932861328125, 
                -0.999908447265625
            ], 
            "type" : "VEC3"
        }, 
        {
            "bufferView" : 3, 
            "componentType" : 5126, 
            "count" : 384, 
            "max" : [
                0.4203236401081085, 
                0.045323729515075684
            ], 
            "min" : [
                0.3921763598918915, 
                0.017176449298858643
            ], 
            "type" : "VEC2"
        }
    ], 
    "asset" : {
        "generator" : "Khronos Blender glTF 2.0 exporter", 
        "version" : "2.0"
    }, 
    "bufferViews" : [
        {
            "buffer" : 0, 
            "byteLength" : 1128, 
            "byteOffset" : 0, 
            "target" : 34963
        }, 
        {
            "buffer" : 0, 
            "byteLength" : 4608, 
            "byteOffset" : 1128, 
            "target" : 34962
        }, 
        {
            "buffer" : 0, 
            "byteLength" : 4608, 
            "byteOffset" : 5736, 
            "target" : 34962
        }, 
        {
            "buffer" : 0, 
            "byteLength" : 3072, 
            "byteOffset" : 10344, 
            "target" : 34962
        }
    ], 
    "buffers" : [
        {
            "byteLength" : 13416, 
            "uri" : "BigRock4.bin"
        }
    ], 
    "meshes" : [
        {
            "name" : "BigRock4", 
            "primitives" : [
                {
                    "attributes" : {
                        "NORMAL" : 2, 
                        "POSITION" : 1, 
                        "TEXCOORD_0" : 3
                    }, 
                    "indices" : 0
                }
            ]
        }
    ], 
    "nodes" : [
        {
            "mesh" : 0, 
            "name" : "BigRock4", 
            "translation" : [
                -8.838008880615234, 
                1.6990810632705688, 
                -50.11101531982422
            ]
        }
    ], 
    "scene" : 0, 
    "scenes" : [
        {
            "name" : "Scene", 
            "nodes" : [
                0
            ]
        }
    ]
}
