{
    "accessors" : [
        {
            "bufferView" : 0, 
            "componentType" : 5121, 
            "count" : 192, 
            "max" : [
                127
            ], 
            "min" : [
                0
            ], 
            "type" : "SCALAR"
        }, 
        {
            "bufferView" : 1, 
            "componentType" : 5126, 
            "count" : 128, 
            "max" : [
                5.600029468536377, 
                7.758828639984131, 
                5.904087543487549
            ], 
            "min" : [
                -8.40083122253418, 
                -4.215684413909912, 
                -8.170578002929688
            ], 
            "type" : "VEC3"
        }, 
        {
            "bufferView" : 2, 
            "componentType" : 5126, 
            "count" : 128, 
            "max" : [
                0.9238258004188538, 
                0.9691762924194336, 
                0.9296243190765381
            ], 
            "min" : [
                -0.9987182021141052, 
                -0.999847412109375, 
                -0.9925839900970459
            ], 
            "type" : "VEC3"
        }, 
        {
            "bufferView" : 3, 
            "componentType" : 5126, 
            "count" : 128, 
            "max" : [
                0.4775577187538147, 
                0.03615152835845947
            ], 
            "min" : [
                0.4599422812461853, 
                0.018536090850830078
            ], 
            "type" : "VEC2"
        }
    ], 
    "asset" : {
        "generator" : "Khronos Blender glTF 2.0 exporter", 
        "version" : "2.0"
    }, 
    "bufferViews" : [
        {
            "buffer" : 0, 
            "byteLength" : 192, 
            "byteOffset" : 0, 
            "target" : 34963
        }, 
        {
            "buffer" : 0, 
            "byteLength" : 1536, 
            "byteOffset" : 192, 
            "target" : 34962
        }, 
        {
            "buffer" : 0, 
            "byteLength" : 1536, 
            "byteOffset" : 1728, 
            "target" : 34962
        }, 
        {
            "buffer" : 0, 
            "byteLength" : 1024, 
            "byteOffset" : 3264, 
            "target" : 34962
        }
    ], 
    "buffers" : [
        {
            "byteLength" : 4288, 
            "uri" : "BigRock2.bin"
        }
    ], 
    "meshes" : [
        {
            "name" : "BigRock2", 
            "primitives" : [
                {
                    "attributes" : {
                        "NORMAL" : 2, 
                        "POSITION" : 1, 
                        "TEXCOORD_0" : 3
                    }, 
                    "indices" : 0
                }
            ]
        }
    ], 
    "nodes" : [
        {
            "mesh" : 0, 
            "name" : "BigRock2", 
            "rotation" : [
                0.0, 
                -0.5674322247505188, 
                -0.0, 
                0.8234202265739441
            ], 
            "translation" : [
                -37.33963394165039, 
                0.0, 
                2.0147018432617188
            ]
        }
    ], 
    "scene" : 0, 
    "scenes" : [
        {
            "name" : "Scene", 
            "nodes" : [
                0
            ]
        }
    ]
}
