{
    "accessors" : [
        {
            "bufferView" : 0, 
            "componentType" : 5123, 
            "count" : 396, 
            "max" : [
                263
            ], 
            "min" : [
                0
            ], 
            "type" : "SCALAR"
        }, 
        {
            "bufferView" : 1, 
            "componentType" : 5126, 
            "count" : 264, 
            "max" : [
                8.208108901977539, 
                6.338212013244629, 
                6.41352653503418
            ], 
            "min" : [
                -6.542427062988281, 
                -3.0912466049194336, 
                -7.97696590423584
            ], 
            "type" : "VEC3"
        }, 
        {
            "bufferView" : 2, 
            "componentType" : 5126, 
            "count" : 264, 
            "max" : [
                0.9960020780563354, 
                0.9985350966453552, 
                0.9950254559516907
            ], 
            "min" : [
                -0.9558702111244202, 
                -0.999786376953125, 
                -0.9989013075828552
            ], 
            "type" : "VEC3"
        }, 
        {
            "bufferView" : 3, 
            "componentType" : 5126, 
            "count" : 264, 
            "max" : [
                0.41760051250457764, 
                0.05041301250457764
            ], 
            "min" : [
                0.38708701729774475, 
                0.01989954710006714
            ], 
            "type" : "VEC2"
        }
    ], 
    "asset" : {
        "generator" : "Khronos Blender glTF 2.0 exporter", 
        "version" : "2.0"
    }, 
    "bufferViews" : [
        {
            "buffer" : 0, 
            "byteLength" : 792, 
            "byteOffset" : 0, 
            "target" : 34963
        }, 
        {
            "buffer" : 0, 
            "byteLength" : 3168, 
            "byteOffset" : 792, 
            "target" : 34962
        }, 
        {
            "buffer" : 0, 
            "byteLength" : 3168, 
            "byteOffset" : 3960, 
            "target" : 34962
        }, 
        {
            "buffer" : 0, 
            "byteLength" : 2112, 
            "byteOffset" : 7128, 
            "target" : 34962
        }
    ], 
    "buffers" : [
        {
            "byteLength" : 9240, 
            "uri" : "BigRock1.bin"
        }
    ], 
    "meshes" : [
        {
            "name" : "BigRock1", 
            "primitives" : [
                {
                    "attributes" : {
                        "NORMAL" : 2, 
                        "POSITION" : 1, 
                        "TEXCOORD_0" : 3
                    }, 
                    "indices" : 0
                }
            ]
        }
    ], 
    "nodes" : [
        {
            "mesh" : 0, 
            "name" : "BigRock1", 
            "translation" : [
                -15.98214054107666, 
                0.0, 
                -32.25883865356445
            ]
        }
    ], 
    "scene" : 0, 
    "scenes" : [
        {
            "name" : "Scene", 
            "nodes" : [
                0
            ]
        }
    ]
}
