{
    "accessors" : [
        {
            "bufferView" : 0, 
            "componentType" : 5123, 
            "count" : 480, 
            "max" : [
                339
            ], 
            "min" : [
                0
            ], 
            "type" : "SCALAR"
        }, 
        {
            "bufferView" : 1, 
            "componentType" : 5126, 
            "count" : 340, 
            "max" : [
                50.118438720703125, 
                6.180760860443115, 
                50.118438720703125
            ], 
            "min" : [
                -50.118438720703125, 
                0.0, 
                -50.118438720703125
            ], 
            "type" : "VEC3"
        }, 
        {
            "bufferView" : 2, 
            "componentType" : 5126, 
            "count" : 340, 
            "max" : [
                0.9951846599578857, 
                1.0, 
                0.9951847195625305
            ], 
            "min" : [
                -0.9951847791671753, 
                0.0, 
                -0.9951846599578857
            ], 
            "type" : "VEC3"
        }, 
        {
            "bufferView" : 3, 
            "componentType" : 5126, 
            "count" : 340, 
            "max" : [
                0.04952680319547653, 
                0.11104637384414673
            ], 
            "min" : [
                0.01537572592496872, 
                0.07689529657363892
            ], 
            "type" : "VEC2"
        }
    ], 
    "asset" : {
        "generator" : "Khronos Blender glTF 2.0 exporter", 
        "version" : "2.0"
    }, 
    "bufferViews" : [
        {
            "buffer" : 0, 
            "byteLength" : 960, 
            "byteOffset" : 0, 
            "target" : 34963
        }, 
        {
            "buffer" : 0, 
            "byteLength" : 4080, 
            "byteOffset" : 960, 
            "target" : 34962
        }, 
        {
            "buffer" : 0, 
            "byteLength" : 4080, 
            "byteOffset" : 5040, 
            "target" : 34962
        }, 
        {
            "buffer" : 0, 
            "byteLength" : 2720, 
            "byteOffset" : 9120, 
            "target" : 34962
        }
    ], 
    "buffers" : [
        {
            "byteLength" : 11840, 
            "uri" : "Ground.bin"
        }
    ], 
    "meshes" : [
        {
            "name" : "Ground", 
            "primitives" : [
                {
                    "attributes" : {
                        "NORMAL" : 2, 
                        "POSITION" : 1, 
                        "TEXCOORD_0" : 3
                    }, 
                    "indices" : 0
                }
            ]
        }
    ], 
    "nodes" : [
        {
            "mesh" : 0, 
            "name" : "Ground"
        }
    ], 
    "scene" : 0, 
    "scenes" : [
        {
            "name" : "Scene", 
            "nodes" : [
                0
            ]
        }
    ]
}
