{
    "accessors" : [
        {
            "bufferView" : 0, 
            "componentType" : 5123, 
            "count" : 21288, 
            "max" : [
                7622
            ], 
            "min" : [
                0
            ], 
            "type" : "SCALAR"
        }, 
        {
            "bufferView" : 1, 
            "componentType" : 5126, 
            "count" : 7623, 
            "max" : [
                51.68655776977539, 
                15.831096649169922, 
                50.47919464111328
            ], 
            "min" : [
                -50.118438720703125, 
                -0.07684993743896484, 
                -50.49567413330078
            ], 
            "type" : "VEC3"
        }, 
        {
            "bufferView" : 2, 
            "componentType" : 5126, 
            "count" : 7623, 
            "max" : [
                0.99920654296875, 
                1.0, 
                0.999847412109375
            ], 
            "min" : [
                -0.99932861328125, 
                -0.999969482421875, 
                -0.999969482421875
            ], 
            "type" : "VEC3"
        }, 
        {
            "bufferView" : 3, 
            "componentType" : 5126, 
            "count" : 7623, 
            "max" : [
                0.354352742433548, 
                0.11104637384414673
            ], 
            "min" : [
                0.01537572592496872, 
                0.013662993907928467
            ], 
            "type" : "VEC2"
        }
    ], 
    "asset" : {
        "generator" : "Khronos Blender glTF 2.0 exporter", 
        "version" : "2.0"
    }, 
    "bufferViews" : [
        {
            "buffer" : 0, 
            "byteLength" : 42576, 
            "byteOffset" : 0, 
            "target" : 34963
        }, 
        {
            "buffer" : 0, 
            "byteLength" : 91476, 
            "byteOffset" : 42576, 
            "target" : 34962
        }, 
        {
            "buffer" : 0, 
            "byteLength" : 91476, 
            "byteOffset" : 134052, 
            "target" : 34962
        }, 
        {
            "buffer" : 0, 
            "byteLength" : 60984, 
            "byteOffset" : 225528, 
            "target" : 34962
        }
    ], 
    "buffers" : [
        {
            "byteLength" : 286512, 
            "uri" : "Ground.bin"
        }
    ], 
    "meshes" : [
        {
            "name" : "Ground", 
            "primitives" : [
                {
                    "attributes" : {
                        "NORMAL" : 2, 
                        "POSITION" : 1, 
                        "TEXCOORD_0" : 3
                    }, 
                    "indices" : 0
                }
            ]
        }
    ], 
    "nodes" : [
        {
            "mesh" : 0, 
            "name" : "Ground"
        }
    ], 
    "scene" : 0, 
    "scenes" : [
        {
            "name" : "Scene", 
            "nodes" : [
                0
            ]
        }
    ]
}
