{
    "accessors" : [
        {
            "bufferView" : 0, 
            "componentType" : 5123, 
            "count" : 7188, 
            "max" : [
                2757
            ], 
            "min" : [
                0
            ], 
            "type" : "SCALAR"
        }, 
        {
            "bufferView" : 1, 
            "componentType" : 5126, 
            "count" : 2758, 
            "max" : [
                53.761375427246094, 
                15.831096649169922, 
                50.648555755615234
            ], 
            "min" : [
                -50.118438720703125, 
                -0.07684993743896484, 
                -51.4401969909668
            ], 
            "type" : "VEC3"
        }, 
        {
            "bufferView" : 2, 
            "componentType" : 5126, 
            "count" : 2758, 
            "max" : [
                0.9988402724266052, 
                1.0, 
                0.999176025390625
            ], 
            "min" : [
                -0.99920654296875, 
                -0.9960631132125854, 
                -0.9985350966453552
            ], 
            "type" : "VEC3"
        }, 
        {
            "bufferView" : 3, 
            "componentType" : 5126, 
            "count" : 2758, 
            "max" : [
                0.354352742433548, 
                0.11104637384414673
            ], 
            "min" : [
                0.01537572592496872, 
                0.016288459300994873
            ], 
            "type" : "VEC2"
        }
    ], 
    "asset" : {
        "generator" : "Khronos Blender glTF 2.0 exporter", 
        "version" : "2.0"
    }, 
    "bufferViews" : [
        {
            "buffer" : 0, 
            "byteLength" : 14376, 
            "byteOffset" : 0, 
            "target" : 34963
        }, 
        {
            "buffer" : 0, 
            "byteLength" : 33096, 
            "byteOffset" : 14376, 
            "target" : 34962
        }, 
        {
            "buffer" : 0, 
            "byteLength" : 33096, 
            "byteOffset" : 47472, 
            "target" : 34962
        }, 
        {
            "buffer" : 0, 
            "byteLength" : 22064, 
            "byteOffset" : 80568, 
            "target" : 34962
        }
    ], 
    "buffers" : [
        {
            "byteLength" : 102632, 
            "uri" : "Ground.bin"
        }
    ], 
    "meshes" : [
        {
            "name" : "Ground", 
            "primitives" : [
                {
                    "attributes" : {
                        "NORMAL" : 2, 
                        "POSITION" : 1, 
                        "TEXCOORD_0" : 3
                    }, 
                    "indices" : 0
                }
            ]
        }
    ], 
    "nodes" : [
        {
            "mesh" : 0, 
            "name" : "Ground"
        }
    ], 
    "scene" : 0, 
    "scenes" : [
        {
            "name" : "Scene", 
            "nodes" : [
                0
            ]
        }
    ]
}
