{
    "accessors" : [
        {
            "bufferView" : 0, 
            "componentType" : 5121, 
            "count" : 324, 
            "max" : [
                215
            ], 
            "min" : [
                0
            ], 
            "type" : "SCALAR"
        }, 
        {
            "bufferView" : 1, 
            "componentType" : 5126, 
            "count" : 216, 
            "max" : [
                2.2056424617767334, 
                2.965834140777588, 
                2.260535955429077
            ], 
            "min" : [
                -2.532803535461426, 
                -1.0455580949783325, 
                -2.5828230381011963
            ], 
            "type" : "VEC3"
        }, 
        {
            "bufferView" : 2, 
            "componentType" : 5126, 
            "count" : 216, 
            "max" : [
                0.9901425242424011, 
                0.9919431209564209, 
                0.9909970164299011
            ], 
            "min" : [
                -0.9891353845596313, 
                -0.999908447265625, 
                -0.9941099286079407
            ], 
            "type" : "VEC3"
        }, 
        {
            "bufferView" : 3, 
            "componentType" : 5126, 
            "count" : 216, 
            "max" : [
                0.46640127897262573, 
                0.03520321846008301
            ], 
            "min" : [
                0.45162197947502136, 
                0.020423948764801025
            ], 
            "type" : "VEC2"
        }
    ], 
    "asset" : {
        "generator" : "Khronos Blender glTF 2.0 exporter", 
        "version" : "2.0"
    }, 
    "bufferViews" : [
        {
            "buffer" : 0, 
            "byteLength" : 324, 
            "byteOffset" : 0, 
            "target" : 34963
        }, 
        {
            "buffer" : 0, 
            "byteLength" : 2592, 
            "byteOffset" : 324, 
            "target" : 34962
        }, 
        {
            "buffer" : 0, 
            "byteLength" : 2592, 
            "byteOffset" : 2916, 
            "target" : 34962
        }, 
        {
            "buffer" : 0, 
            "byteLength" : 1728, 
            "byteOffset" : 5508, 
            "target" : 34962
        }
    ], 
    "buffers" : [
        {
            "byteLength" : 7236, 
            "uri" : "Rock_18.bin"
        }
    ], 
    "meshes" : [
        {
            "name" : "Rock_18", 
            "primitives" : [
                {
                    "attributes" : {
                        "NORMAL" : 2, 
                        "POSITION" : 1, 
                        "TEXCOORD_0" : 3
                    }, 
                    "indices" : 0
                }
            ]
        }
    ], 
    "nodes" : [
        {
            "mesh" : 0, 
            "name" : "Rock_18", 
            "translation" : [
                0.989147961139679, 
                0.0, 
                -34.76679992675781
            ]
        }
    ], 
    "scene" : 0, 
    "scenes" : [
        {
            "name" : "Scene", 
            "nodes" : [
                0
            ]
        }
    ]
}
