{
    "accessors" : [
        {
            "bufferView" : 0, 
            "componentType" : 5121, 
            "count" : 282, 
            "max" : [
                187
            ], 
            "min" : [
                0
            ], 
            "type" : "SCALAR"
        }, 
        {
            "bufferView" : 1, 
            "componentType" : 5126, 
            "count" : 188, 
            "max" : [
                1.5210899114608765, 
                3.3140058517456055, 
                1.9158762693405151
            ], 
            "min" : [
                -3.235968589782715, 
                -1.7096699476242065, 
                -2.2133209705352783
            ], 
            "type" : "VEC3"
        }, 
        {
            "bufferView" : 2, 
            "componentType" : 5126, 
            "count" : 188, 
            "max" : [
                0.9869990944862366, 
                0.9974669814109802, 
                0.9921872615814209
            ], 
            "min" : [
                -0.9442121386528015, 
                -0.9921262264251709, 
                -0.9916989803314209
            ], 
            "type" : "VEC3"
        }, 
        {
            "bufferView" : 3, 
            "componentType" : 5126, 
            "count" : 188, 
            "max" : [
                0.4752316474914551, 
                0.03419637680053711
            ], 
            "min" : [
                0.46574509143829346, 
                0.024709880352020264
            ], 
            "type" : "VEC2"
        }
    ], 
    "asset" : {
        "generator" : "Khronos Blender glTF 2.0 exporter", 
        "version" : "2.0"
    }, 
    "bufferViews" : [
        {
            "buffer" : 0, 
            "byteLength" : 282, 
            "byteOffset" : 0, 
            "target" : 34963
        }, 
        {
            "buffer" : 0, 
            "byteLength" : 2256, 
            "byteOffset" : 284, 
            "target" : 34962
        }, 
        {
            "buffer" : 0, 
            "byteLength" : 2256, 
            "byteOffset" : 2540, 
            "target" : 34962
        }, 
        {
            "buffer" : 0, 
            "byteLength" : 1504, 
            "byteOffset" : 4796, 
            "target" : 34962
        }
    ], 
    "buffers" : [
        {
            "byteLength" : 6300, 
            "uri" : "Rock_20.bin"
        }
    ], 
    "meshes" : [
        {
            "name" : "Rock_20", 
            "primitives" : [
                {
                    "attributes" : {
                        "NORMAL" : 2, 
                        "POSITION" : 1, 
                        "TEXCOORD_0" : 3
                    }, 
                    "indices" : 0
                }
            ]
        }
    ], 
    "nodes" : [
        {
            "mesh" : 0, 
            "name" : "Rock_20", 
            "translation" : [
                15.215521812438965, 
                0.24151611328125, 
                -7.791202068328857
            ]
        }
    ], 
    "scene" : 0, 
    "scenes" : [
        {
            "name" : "Scene", 
            "nodes" : [
                0
            ]
        }
    ]
}
