{
    "accessors" : [
        {
            "bufferView" : 0, 
            "componentType" : 5121, 
            "count" : 324, 
            "max" : [
                215
            ], 
            "min" : [
                0
            ], 
            "type" : "SCALAR"
        }, 
        {
            "bufferView" : 1, 
            "componentType" : 5126, 
            "count" : 216, 
            "max" : [
                1.8245432376861572, 
                2.224945068359375, 
                1.5351642370224
            ], 
            "min" : [
                -1.786441683769226, 
                -1.3049124479293823, 
                -2.446598529815674
            ], 
            "type" : "VEC3"
        }, 
        {
            "bufferView" : 2, 
            "componentType" : 5126, 
            "count" : 216, 
            "max" : [
                0.9928281307220459, 
                0.9989623427391052, 
                0.983214795589447
            ], 
            "min" : [
                -0.9663991332054138, 
                -0.999908447265625, 
                -0.9752799868583679
            ], 
            "type" : "VEC3"
        }, 
        {
            "bufferView" : 3, 
            "componentType" : 5126, 
            "count" : 216, 
            "max" : [
                0.40497294068336487, 
                0.047554075717926025
            ], 
            "min" : [
                0.3917245864868164, 
                0.034305691719055176
            ], 
            "type" : "VEC2"
        }
    ], 
    "asset" : {
        "generator" : "Khronos Blender glTF 2.0 exporter", 
        "version" : "2.0"
    }, 
    "bufferViews" : [
        {
            "buffer" : 0, 
            "byteLength" : 324, 
            "byteOffset" : 0, 
            "target" : 34963
        }, 
        {
            "buffer" : 0, 
            "byteLength" : 2592, 
            "byteOffset" : 324, 
            "target" : 34962
        }, 
        {
            "buffer" : 0, 
            "byteLength" : 2592, 
            "byteOffset" : 2916, 
            "target" : 34962
        }, 
        {
            "buffer" : 0, 
            "byteLength" : 1728, 
            "byteOffset" : 5508, 
            "target" : 34962
        }
    ], 
    "buffers" : [
        {
            "byteLength" : 7236, 
            "uri" : "Rock7.bin"
        }
    ], 
    "meshes" : [
        {
            "name" : "Rock7", 
            "primitives" : [
                {
                    "attributes" : {
                        "NORMAL" : 2, 
                        "POSITION" : 1, 
                        "TEXCOORD_0" : 3
                    }, 
                    "indices" : 0
                }
            ]
        }
    ], 
    "nodes" : [
        {
            "mesh" : 0, 
            "name" : "Rock7", 
            "translation" : [
                28.356523513793945, 
                -0.1933426856994629, 
                -20.05341911315918
            ]
        }
    ], 
    "scene" : 0, 
    "scenes" : [
        {
            "name" : "Scene", 
            "nodes" : [
                0
            ]
        }
    ]
}
