{
    "accessors" : [
        {
            "bufferView" : 0, 
            "componentType" : 5121, 
            "count" : 288, 
            "max" : [
                191
            ], 
            "min" : [
                0
            ], 
            "type" : "SCALAR"
        }, 
        {
            "bufferView" : 1, 
            "componentType" : 5126, 
            "count" : 192, 
            "max" : [
                2.1224608421325684, 
                4.4972052574157715, 
                1.9945329427719116
            ], 
            "min" : [
                -2.142470598220825, 
                -1.7585830688476562, 
                -2.4765284061431885
            ], 
            "type" : "VEC3"
        }, 
        {
            "bufferView" : 2, 
            "componentType" : 5126, 
            "count" : 192, 
            "max" : [
                0.999969482421875, 
                0.9908749461174011, 
                0.9905087351799011
            ], 
            "min" : [
                -0.9592882990837097, 
                -0.999420166015625, 
                -0.9783318638801575
            ], 
            "type" : "VEC3"
        }, 
        {
            "bufferView" : 3, 
            "componentType" : 5126, 
            "count" : 192, 
            "max" : [
                0.4246971011161804, 
                0.04596424102783203
            ], 
            "min" : [
                0.3916749060153961, 
                0.012941956520080566
            ], 
            "type" : "VEC2"
        }
    ], 
    "asset" : {
        "generator" : "Khronos Blender glTF 2.0 exporter", 
        "version" : "2.0"
    }, 
    "bufferViews" : [
        {
            "buffer" : 0, 
            "byteLength" : 288, 
            "byteOffset" : 0, 
            "target" : 34963
        }, 
        {
            "buffer" : 0, 
            "byteLength" : 2304, 
            "byteOffset" : 288, 
            "target" : 34962
        }, 
        {
            "buffer" : 0, 
            "byteLength" : 2304, 
            "byteOffset" : 2592, 
            "target" : 34962
        }, 
        {
            "buffer" : 0, 
            "byteLength" : 1536, 
            "byteOffset" : 4896, 
            "target" : 34962
        }
    ], 
    "buffers" : [
        {
            "byteLength" : 6432, 
            "uri" : "Rock_19.bin"
        }
    ], 
    "meshes" : [
        {
            "name" : "Rock_19", 
            "primitives" : [
                {
                    "attributes" : {
                        "NORMAL" : 2, 
                        "POSITION" : 1, 
                        "TEXCOORD_0" : 3
                    }, 
                    "indices" : 0
                }
            ]
        }
    ], 
    "nodes" : [
        {
            "mesh" : 0, 
            "name" : "Rock_19", 
            "translation" : [
                6.906487941741943, 
                0.15454339981079102, 
                -7.879755020141602
            ]
        }
    ], 
    "scene" : 0, 
    "scenes" : [
        {
            "name" : "Scene", 
            "nodes" : [
                0
            ]
        }
    ]
}
