{
    "accessors" : [
        {
            "bufferView" : 0, 
            "componentType" : 5121, 
            "count" : 192, 
            "max" : [
                127
            ], 
            "min" : [
                0
            ], 
            "type" : "SCALAR"
        }, 
        {
            "bufferView" : 1, 
            "componentType" : 5126, 
            "count" : 128, 
            "max" : [
                1.6905090808868408, 
                1.2991878986358643, 
                1.6624025106430054
            ], 
            "min" : [
                -2.399961471557617, 
                -1.0856574773788452, 
                -1.5372670888900757
            ], 
            "type" : "VEC3"
        }, 
        {
            "bufferView" : 2, 
            "componentType" : 5126, 
            "count" : 128, 
            "max" : [
                0.9940183758735657, 
                0.9993896484375, 
                0.9660024046897888
            ], 
            "min" : [
                -0.9027985334396362, 
                -0.99908447265625, 
                -0.999725341796875
            ], 
            "type" : "VEC3"
        }, 
        {
            "bufferView" : 3, 
            "componentType" : 5126, 
            "count" : 128, 
            "max" : [
                0.4695151746273041, 
                0.036677658557891846
            ], 
            "min" : [
                0.45506617426872253, 
                0.022228658199310303
            ], 
            "type" : "VEC2"
        }
    ], 
    "asset" : {
        "generator" : "Khronos Blender glTF 2.0 exporter", 
        "version" : "2.0"
    }, 
    "bufferViews" : [
        {
            "buffer" : 0, 
            "byteLength" : 192, 
            "byteOffset" : 0, 
            "target" : 34963
        }, 
        {
            "buffer" : 0, 
            "byteLength" : 1536, 
            "byteOffset" : 192, 
            "target" : 34962
        }, 
        {
            "buffer" : 0, 
            "byteLength" : 1536, 
            "byteOffset" : 1728, 
            "target" : 34962
        }, 
        {
            "buffer" : 0, 
            "byteLength" : 1024, 
            "byteOffset" : 3264, 
            "target" : 34962
        }
    ], 
    "buffers" : [
        {
            "byteLength" : 4288, 
            "uri" : "Rock6.bin"
        }
    ], 
    "meshes" : [
        {
            "name" : "Rock6", 
            "primitives" : [
                {
                    "attributes" : {
                        "NORMAL" : 2, 
                        "POSITION" : 1, 
                        "TEXCOORD_0" : 3
                    }, 
                    "indices" : 0
                }
            ]
        }
    ], 
    "nodes" : [
        {
            "mesh" : 0, 
            "name" : "Rock6", 
            "translation" : [
                -11.584946632385254, 
                0.0, 
                32.802825927734375
            ]
        }
    ], 
    "scene" : 0, 
    "scenes" : [
        {
            "name" : "Scene", 
            "nodes" : [
                0
            ]
        }
    ]
}
