{
    "accessors" : [
        {
            "bufferView" : 0, 
            "componentType" : 5121, 
            "count" : 252, 
            "max" : [
                167
            ], 
            "min" : [
                0
            ], 
            "type" : "SCALAR"
        }, 
        {
            "bufferView" : 1, 
            "componentType" : 5126, 
            "count" : 168, 
            "max" : [
                1.832993745803833, 
                0.4401005208492279, 
                3.8532662391662598
            ], 
            "min" : [
                -1.4154194593429565, 
                -1.6715434789657593, 
                -2.566232919692993
            ], 
            "type" : "VEC3"
        }, 
        {
            "bufferView" : 2, 
            "componentType" : 5126, 
            "count" : 168, 
            "max" : [
                0.9956969022750854, 
                0.999786376953125, 
                0.9912106394767761
            ], 
            "min" : [
                -0.9960936307907104, 
                -0.9984740614891052, 
                -0.982299268245697
            ], 
            "type" : "VEC3"
        }, 
        {
            "bufferView" : 3, 
            "componentType" : 5126, 
            "count" : 168, 
            "max" : [
                0.4110671281814575, 
                0.03725290298461914
            ], 
            "min" : [
                0.3954676389694214, 
                0.021653413772583008
            ], 
            "type" : "VEC2"
        }
    ], 
    "asset" : {
        "generator" : "Khronos Blender glTF 2.0 exporter", 
        "version" : "2.0"
    }, 
    "bufferViews" : [
        {
            "buffer" : 0, 
            "byteLength" : 252, 
            "byteOffset" : 0, 
            "target" : 34963
        }, 
        {
            "buffer" : 0, 
            "byteLength" : 2016, 
            "byteOffset" : 252, 
            "target" : 34962
        }, 
        {
            "buffer" : 0, 
            "byteLength" : 2016, 
            "byteOffset" : 2268, 
            "target" : 34962
        }, 
        {
            "buffer" : 0, 
            "byteLength" : 1344, 
            "byteOffset" : 4284, 
            "target" : 34962
        }
    ], 
    "buffers" : [
        {
            "byteLength" : 5628, 
            "uri" : "Rock_16.bin"
        }
    ], 
    "meshes" : [
        {
            "name" : "Rock_16", 
            "primitives" : [
                {
                    "attributes" : {
                        "NORMAL" : 2, 
                        "POSITION" : 1, 
                        "TEXCOORD_0" : 3
                    }, 
                    "indices" : 0
                }
            ]
        }
    ], 
    "nodes" : [
        {
            "mesh" : 0, 
            "name" : "Rock_16", 
            "translation" : [
                -16.218528747558594, 
                0.1980299949645996, 
                -9.175413131713867
            ]
        }
    ], 
    "scene" : 0, 
    "scenes" : [
        {
            "name" : "Scene", 
            "nodes" : [
                0
            ]
        }
    ]
}
