{
    "accessors" : [
        {
            "bufferView" : 0, 
            "componentType" : 5121, 
            "count" : 192, 
            "max" : [
                131
            ], 
            "min" : [
                0
            ], 
            "type" : "SCALAR"
        }, 
        {
            "bufferView" : 1, 
            "componentType" : 5126, 
            "count" : 132, 
            "max" : [
                0.6053260564804077, 
                0.661530613899231, 
                1.4615328311920166
            ], 
            "min" : [
                -1.1636329889297485, 
                -0.6578024625778198, 
                -0.3325994312763214
            ], 
            "type" : "VEC3"
        }, 
        {
            "bufferView" : 2, 
            "componentType" : 5126, 
            "count" : 132, 
            "max" : [
                0.983214795589447, 
                0.9794304966926575, 
                0.9113132357597351
            ], 
            "min" : [
                -0.9845881462097168, 
                -0.9909054636955261, 
                -0.9573045969009399
            ], 
            "type" : "VEC3"
        }, 
        {
            "bufferView" : 3, 
            "componentType" : 5126, 
            "count" : 132, 
            "max" : [
                0.4642324447631836, 
                0.05270892381668091
            ], 
            "min" : [
                0.44723260402679443, 
                0.03570908308029175
            ], 
            "type" : "VEC2"
        }
    ], 
    "asset" : {
        "generator" : "Khronos Blender glTF 2.0 exporter", 
        "version" : "2.0"
    }, 
    "bufferViews" : [
        {
            "buffer" : 0, 
            "byteLength" : 192, 
            "byteOffset" : 0, 
            "target" : 34963
        }, 
        {
            "buffer" : 0, 
            "byteLength" : 1584, 
            "byteOffset" : 192, 
            "target" : 34962
        }, 
        {
            "buffer" : 0, 
            "byteLength" : 1584, 
            "byteOffset" : 1776, 
            "target" : 34962
        }, 
        {
            "buffer" : 0, 
            "byteLength" : 1056, 
            "byteOffset" : 3360, 
            "target" : 34962
        }
    ], 
    "buffers" : [
        {
            "byteLength" : 4416, 
            "uri" : "Rock4.bin"
        }
    ], 
    "meshes" : [
        {
            "name" : "Rock4", 
            "primitives" : [
                {
                    "attributes" : {
                        "NORMAL" : 2, 
                        "POSITION" : 1, 
                        "TEXCOORD_0" : 3
                    }, 
                    "indices" : 0
                }
            ]
        }
    ], 
    "nodes" : [
        {
            "mesh" : 0, 
            "name" : "Rock4", 
            "translation" : [
                22.207015991210938, 
                0.0, 
                5.289277076721191
            ]
        }
    ], 
    "scene" : 0, 
    "scenes" : [
        {
            "name" : "Scene", 
            "nodes" : [
                0
            ]
        }
    ]
}
