{
    "accessors" : [
        {
            "bufferView" : 0, 
            "componentType" : 5121, 
            "count" : 144, 
            "max" : [
                95
            ], 
            "min" : [
                0
            ], 
            "type" : "SCALAR"
        }, 
        {
            "bufferView" : 1, 
            "componentType" : 5126, 
            "count" : 96, 
            "max" : [
                0.36769407987594604, 
                1.1207425594329834, 
                1.1003211736679077
            ], 
            "min" : [
                -1.379045844078064, 
                -0.9161900877952576, 
                -1.1620060205459595
            ], 
            "type" : "VEC3"
        }, 
        {
            "bufferView" : 2, 
            "componentType" : 5126, 
            "count" : 96, 
            "max" : [
                0.9982299208641052, 
                0.9634693264961243, 
                0.9545274376869202
            ], 
            "min" : [
                -0.9748222231864929, 
                -0.983306348323822, 
                -0.9954527616500854
            ], 
            "type" : "VEC3"
        }, 
        {
            "bufferView" : 3, 
            "componentType" : 5126, 
            "count" : 96, 
            "max" : [
                0.47601786255836487, 
                0.04481983184814453
            ], 
            "min" : [
                0.44856348633766174, 
                0.017365455627441406
            ], 
            "type" : "VEC2"
        }
    ], 
    "asset" : {
        "generator" : "Khronos Blender glTF 2.0 exporter", 
        "version" : "2.0"
    }, 
    "bufferViews" : [
        {
            "buffer" : 0, 
            "byteLength" : 144, 
            "byteOffset" : 0, 
            "target" : 34963
        }, 
        {
            "buffer" : 0, 
            "byteLength" : 1152, 
            "byteOffset" : 144, 
            "target" : 34962
        }, 
        {
            "buffer" : 0, 
            "byteLength" : 1152, 
            "byteOffset" : 1296, 
            "target" : 34962
        }, 
        {
            "buffer" : 0, 
            "byteLength" : 768, 
            "byteOffset" : 2448, 
            "target" : 34962
        }
    ], 
    "buffers" : [
        {
            "byteLength" : 3216, 
            "uri" : "Rock2.bin"
        }
    ], 
    "meshes" : [
        {
            "name" : "Rock2", 
            "primitives" : [
                {
                    "attributes" : {
                        "NORMAL" : 2, 
                        "POSITION" : 1, 
                        "TEXCOORD_0" : 3
                    }, 
                    "indices" : 0
                }
            ]
        }
    ], 
    "nodes" : [
        {
            "mesh" : 0, 
            "name" : "Rock2", 
            "translation" : [
                -10.265253067016602, 
                0.0, 
                24.793373107910156
            ]
        }
    ], 
    "scene" : 0, 
    "scenes" : [
        {
            "name" : "Scene", 
            "nodes" : [
                0
            ]
        }
    ]
}
