{
    "accessors" : [
        {
            "bufferView" : 0, 
            "componentType" : 5121, 
            "count" : 324, 
            "max" : [
                215
            ], 
            "min" : [
                0
            ], 
            "type" : "SCALAR"
        }, 
        {
            "bufferView" : 1, 
            "componentType" : 5126, 
            "count" : 216, 
            "max" : [
                2.689178705215454, 
                2.3591392040252686, 
                2.360616683959961
            ], 
            "min" : [
                -2.186030387878418, 
                -1.5326905250549316, 
                -3.042935609817505
            ], 
            "type" : "VEC3"
        }, 
        {
            "bufferView" : 2, 
            "componentType" : 5126, 
            "count" : 216, 
            "max" : [
                0.9458906650543213, 
                0.9751579165458679, 
                0.9839777946472168
            ], 
            "min" : [
                -0.9968260526657104, 
                -0.9951475858688354, 
                -0.9908749461174011
            ], 
            "type" : "VEC3"
        }, 
        {
            "bufferView" : 3, 
            "componentType" : 5126, 
            "count" : 216, 
            "max" : [
                0.4224459230899811, 
                0.04535257816314697
            ], 
            "min" : [
                0.3972051441669464, 
                0.020111799240112305
            ], 
            "type" : "VEC2"
        }
    ], 
    "asset" : {
        "generator" : "Khronos Blender glTF 2.0 exporter", 
        "version" : "2.0"
    }, 
    "bufferViews" : [
        {
            "buffer" : 0, 
            "byteLength" : 324, 
            "byteOffset" : 0, 
            "target" : 34963
        }, 
        {
            "buffer" : 0, 
            "byteLength" : 2592, 
            "byteOffset" : 324, 
            "target" : 34962
        }, 
        {
            "buffer" : 0, 
            "byteLength" : 2592, 
            "byteOffset" : 2916, 
            "target" : 34962
        }, 
        {
            "buffer" : 0, 
            "byteLength" : 1728, 
            "byteOffset" : 5508, 
            "target" : 34962
        }
    ], 
    "buffers" : [
        {
            "byteLength" : 7236, 
            "uri" : "Rock_24.bin"
        }
    ], 
    "meshes" : [
        {
            "name" : "Rock_24", 
            "primitives" : [
                {
                    "attributes" : {
                        "NORMAL" : 2, 
                        "POSITION" : 1, 
                        "TEXCOORD_0" : 3
                    }, 
                    "indices" : 0
                }
            ]
        }
    ], 
    "nodes" : [
        {
            "mesh" : 0, 
            "name" : "Rock_24", 
            "rotation" : [
                0.0, 
                0.44601964950561523, 
                -0.0, 
                0.8950232863426208
            ], 
            "translation" : [
                -21.497724533081055, 
                0.0, 
                19.870222091674805
            ]
        }
    ], 
    "scene" : 0, 
    "scenes" : [
        {
            "name" : "Scene", 
            "nodes" : [
                0
            ]
        }
    ]
}
