{
    "accessors" : [
        {
            "bufferView" : 0, 
            "componentType" : 5121, 
            "count" : 144, 
            "max" : [
                95
            ], 
            "min" : [
                0
            ], 
            "type" : "SCALAR"
        }, 
        {
            "bufferView" : 1, 
            "componentType" : 5126, 
            "count" : 96, 
            "max" : [
                1.3936843872070312, 
                1.2445812225341797, 
                1.6944524049758911
            ], 
            "min" : [
                -3.086665391921997, 
                -1.2296710014343262, 
                -2.213155508041382
            ], 
            "type" : "VEC3"
        }, 
        {
            "bufferView" : 2, 
            "componentType" : 5126, 
            "count" : 96, 
            "max" : [
                0.9680166244506836, 
                0.964018702507019, 
                0.9781487584114075
            ], 
            "min" : [
                -0.9963377714157104, 
                -0.9962767362594604, 
                -0.9610583782196045
            ], 
            "type" : "VEC3"
        }, 
        {
            "bufferView" : 3, 
            "componentType" : 5126, 
            "count" : 96, 
            "max" : [
                0.42439690232276917, 
                0.048943161964416504
            ], 
            "min" : [
                0.391975075006485, 
                0.016521334648132324
            ], 
            "type" : "VEC2"
        }
    ], 
    "asset" : {
        "generator" : "Khronos Blender glTF 2.0 exporter", 
        "version" : "2.0"
    }, 
    "bufferViews" : [
        {
            "buffer" : 0, 
            "byteLength" : 144, 
            "byteOffset" : 0, 
            "target" : 34963
        }, 
        {
            "buffer" : 0, 
            "byteLength" : 1152, 
            "byteOffset" : 144, 
            "target" : 34962
        }, 
        {
            "buffer" : 0, 
            "byteLength" : 1152, 
            "byteOffset" : 1296, 
            "target" : 34962
        }, 
        {
            "buffer" : 0, 
            "byteLength" : 768, 
            "byteOffset" : 2448, 
            "target" : 34962
        }
    ], 
    "buffers" : [
        {
            "byteLength" : 3216, 
            "uri" : "Rock_13.bin"
        }
    ], 
    "meshes" : [
        {
            "name" : "Rock_13", 
            "primitives" : [
                {
                    "attributes" : {
                        "NORMAL" : 2, 
                        "POSITION" : 1, 
                        "TEXCOORD_0" : 3
                    }, 
                    "indices" : 0
                }
            ]
        }
    ], 
    "nodes" : [
        {
            "mesh" : 0, 
            "name" : "Rock_13", 
            "translation" : [
                -22.310001373291016, 
                0.0, 
                16.143211364746094
            ]
        }
    ], 
    "scene" : 0, 
    "scenes" : [
        {
            "name" : "Scene", 
            "nodes" : [
                0
            ]
        }
    ]
}
