{
    "accessors" : [
        {
            "bufferView" : 0, 
            "componentType" : 5121, 
            "count" : 336, 
            "max" : [
                239
            ], 
            "min" : [
                0
            ], 
            "type" : "SCALAR"
        }, 
        {
            "bufferView" : 1, 
            "componentType" : 5126, 
            "count" : 240, 
            "max" : [
                1.2557222843170166, 
                0.632561206817627, 
                1.2267121076583862
            ], 
            "min" : [
                -1.5828808546066284, 
                -0.536011815071106, 
                -0.9201409220695496
            ], 
            "type" : "VEC3"
        }, 
        {
            "bufferView" : 2, 
            "componentType" : 5126, 
            "count" : 240, 
            "max" : [
                0.9188817739486694, 
                0.9990233778953552, 
                0.9558396935462952
            ], 
            "min" : [
                -0.9864802956581116, 
                -0.9971923232078552, 
                -0.9636219143867493
            ], 
            "type" : "VEC3"
        }, 
        {
            "bufferView" : 3, 
            "componentType" : 5126, 
            "count" : 240, 
            "max" : [
                0.41267168521881104, 
                0.03393888473510742
            ], 
            "min" : [
                0.39386308193206787, 
                0.015130281448364258
            ], 
            "type" : "VEC2"
        }
    ], 
    "asset" : {
        "generator" : "Khronos Blender glTF 2.0 exporter", 
        "version" : "2.0"
    }, 
    "bufferViews" : [
        {
            "buffer" : 0, 
            "byteLength" : 336, 
            "byteOffset" : 0, 
            "target" : 34963
        }, 
        {
            "buffer" : 0, 
            "byteLength" : 2880, 
            "byteOffset" : 336, 
            "target" : 34962
        }, 
        {
            "buffer" : 0, 
            "byteLength" : 2880, 
            "byteOffset" : 3216, 
            "target" : 34962
        }, 
        {
            "buffer" : 0, 
            "byteLength" : 1920, 
            "byteOffset" : 6096, 
            "target" : 34962
        }
    ], 
    "buffers" : [
        {
            "byteLength" : 8016, 
            "uri" : "Rock5.bin"
        }
    ], 
    "meshes" : [
        {
            "name" : "Rock5", 
            "primitives" : [
                {
                    "attributes" : {
                        "NORMAL" : 2, 
                        "POSITION" : 1, 
                        "TEXCOORD_0" : 3
                    }, 
                    "indices" : 0
                }
            ]
        }
    ], 
    "nodes" : [
        {
            "mesh" : 0, 
            "name" : "Rock5", 
            "translation" : [
                18.97075653076172, 
                0.0, 
                29.18462562561035
            ]
        }
    ], 
    "scene" : 0, 
    "scenes" : [
        {
            "name" : "Scene", 
            "nodes" : [
                0
            ]
        }
    ]
}
