{
    "accessors" : [
        {
            "bufferView" : 0, 
            "componentType" : 5121, 
            "count" : 324, 
            "max" : [
                215
            ], 
            "min" : [
                0
            ], 
            "type" : "SCALAR"
        }, 
        {
            "bufferView" : 1, 
            "componentType" : 5126, 
            "count" : 216, 
            "max" : [
                1.5032601356506348, 
                2.1617701053619385, 
                2.209191083908081
            ], 
            "min" : [
                -2.510014057159424, 
                -1.255739688873291, 
                -2.6103203296661377
            ], 
            "type" : "VEC3"
        }, 
        {
            "bufferView" : 2, 
            "componentType" : 5126, 
            "count" : 216, 
            "max" : [
                0.9957579374313354, 
                0.9954222440719604, 
                0.9708548188209534
            ], 
            "min" : [
                -0.9985350966453552, 
                -0.9972228407859802, 
                -0.9768059253692627
            ], 
            "type" : "VEC3"
        }, 
        {
            "bufferView" : 3, 
            "componentType" : 5126, 
            "count" : 216, 
            "max" : [
                0.4187397062778473, 
                0.028530120849609375
            ], 
            "min" : [
                0.4009113609790802, 
                0.010701775550842285
            ], 
            "type" : "VEC2"
        }
    ], 
    "asset" : {
        "generator" : "Khronos Blender glTF 2.0 exporter", 
        "version" : "2.0"
    }, 
    "bufferViews" : [
        {
            "buffer" : 0, 
            "byteLength" : 324, 
            "byteOffset" : 0, 
            "target" : 34963
        }, 
        {
            "buffer" : 0, 
            "byteLength" : 2592, 
            "byteOffset" : 324, 
            "target" : 34962
        }, 
        {
            "buffer" : 0, 
            "byteLength" : 2592, 
            "byteOffset" : 2916, 
            "target" : 34962
        }, 
        {
            "buffer" : 0, 
            "byteLength" : 1728, 
            "byteOffset" : 5508, 
            "target" : 34962
        }
    ], 
    "buffers" : [
        {
            "byteLength" : 7236, 
            "uri" : "Rock_11.bin"
        }
    ], 
    "meshes" : [
        {
            "name" : "Rock_11", 
            "primitives" : [
                {
                    "attributes" : {
                        "NORMAL" : 2, 
                        "POSITION" : 1, 
                        "TEXCOORD_0" : 3
                    }, 
                    "indices" : 0
                }
            ]
        }
    ], 
    "nodes" : [
        {
            "mesh" : 0, 
            "name" : "Rock_11", 
            "translation" : [
                -7.442968368530273, 
                -0.1933426856994629, 
                33.13080978393555
            ]
        }
    ], 
    "scene" : 0, 
    "scenes" : [
        {
            "name" : "Scene", 
            "nodes" : [
                0
            ]
        }
    ]
}
