{
    "accessors" : [
        {
            "bufferView" : 0, 
            "componentType" : 5121, 
            "count" : 324, 
            "max" : [
                215
            ], 
            "min" : [
                0
            ], 
            "type" : "SCALAR"
        }, 
        {
            "bufferView" : 1, 
            "componentType" : 5126, 
            "count" : 216, 
            "max" : [
                1.5939741134643555, 
                0.3655082583427429, 
                1.6277037858963013
            ], 
            "min" : [
                -1.0972682237625122, 
                -1.583023190498352, 
                -2.2248897552490234
            ], 
            "type" : "VEC3"
        }, 
        {
            "bufferView" : 2, 
            "componentType" : 5126, 
            "count" : 216, 
            "max" : [
                0.9934995770454407, 
                0.9716787934303284, 
                0.9812616109848022
            ], 
            "min" : [
                -0.9757683277130127, 
                -0.999847412109375, 
                -0.9560533165931702
            ], 
            "type" : "VEC3"
        }, 
        {
            "bufferView" : 3, 
            "componentType" : 5126, 
            "count" : 216, 
            "max" : [
                0.4156261086463928, 
                0.04017233848571777
            ], 
            "min" : [
                0.3941877484321594, 
                0.018733978271484375
            ], 
            "type" : "VEC2"
        }
    ], 
    "asset" : {
        "generator" : "Khronos Blender glTF 2.0 exporter", 
        "version" : "2.0"
    }, 
    "bufferViews" : [
        {
            "buffer" : 0, 
            "byteLength" : 324, 
            "byteOffset" : 0, 
            "target" : 34963
        }, 
        {
            "buffer" : 0, 
            "byteLength" : 2592, 
            "byteOffset" : 324, 
            "target" : 34962
        }, 
        {
            "buffer" : 0, 
            "byteLength" : 2592, 
            "byteOffset" : 2916, 
            "target" : 34962
        }, 
        {
            "buffer" : 0, 
            "byteLength" : 1728, 
            "byteOffset" : 5508, 
            "target" : 34962
        }
    ], 
    "buffers" : [
        {
            "byteLength" : 7236, 
            "uri" : "Rock3.bin"
        }
    ], 
    "meshes" : [
        {
            "name" : "Rock3", 
            "primitives" : [
                {
                    "attributes" : {
                        "NORMAL" : 2, 
                        "POSITION" : 1, 
                        "TEXCOORD_0" : 3
                    }, 
                    "indices" : 0
                }
            ]
        }
    ], 
    "nodes" : [
        {
            "mesh" : 0, 
            "name" : "Rock3", 
            "translation" : [
                14.302602767944336, 
                0.0, 
                16.80325698852539
            ]
        }
    ], 
    "scene" : 0, 
    "scenes" : [
        {
            "name" : "Scene", 
            "nodes" : [
                0
            ]
        }
    ]
}
