{
    "accessors" : [
        {
            "bufferView" : 0, 
            "componentType" : 5121, 
            "count" : 84, 
            "max" : [
                47
            ], 
            "min" : [
                0
            ], 
            "type" : "SCALAR"
        }, 
        {
            "bufferView" : 1, 
            "componentType" : 5126, 
            "count" : 48, 
            "max" : [
                1.014407992362976, 
                0.976405680179596, 
                1.1510698795318604
            ], 
            "min" : [
                -0.6320691108703613, 
                -0.05266871303319931, 
                -1.5802948474884033
            ], 
            "type" : "VEC3"
        }, 
        {
            "bufferView" : 2, 
            "componentType" : 5126, 
            "count" : 48, 
            "max" : [
                0.9370403289794922, 
                0.9907223582267761, 
                0.9269081950187683
            ], 
            "min" : [
                -0.9858394265174866, 
                -0.9949644207954407, 
                -0.7337870597839355
            ], 
            "type" : "VEC3"
        }, 
        {
            "bufferView" : 3, 
            "componentType" : 5126, 
            "count" : 48, 
            "max" : [
                0.4147892892360687, 
                0.04589366912841797
            ], 
            "min" : [
                0.3983035981655121, 
                0.029407978057861328
            ], 
            "type" : "VEC2"
        }
    ], 
    "asset" : {
        "generator" : "Khronos Blender glTF 2.0 exporter", 
        "version" : "2.0"
    }, 
    "bufferViews" : [
        {
            "buffer" : 0, 
            "byteLength" : 84, 
            "byteOffset" : 0, 
            "target" : 34963
        }, 
        {
            "buffer" : 0, 
            "byteLength" : 576, 
            "byteOffset" : 84, 
            "target" : 34962
        }, 
        {
            "buffer" : 0, 
            "byteLength" : 576, 
            "byteOffset" : 660, 
            "target" : 34962
        }, 
        {
            "buffer" : 0, 
            "byteLength" : 384, 
            "byteOffset" : 1236, 
            "target" : 34962
        }
    ], 
    "buffers" : [
        {
            "byteLength" : 1620, 
            "uri" : "Rock1.bin"
        }
    ], 
    "meshes" : [
        {
            "name" : "Rock1", 
            "primitives" : [
                {
                    "attributes" : {
                        "NORMAL" : 2, 
                        "POSITION" : 1, 
                        "TEXCOORD_0" : 3
                    }, 
                    "indices" : 0
                }
            ]
        }
    ], 
    "nodes" : [
        {
            "mesh" : 0, 
            "name" : "Rock1", 
            "translation" : [
                -18.391693115234375, 
                0.0, 
                -24.582616806030273
            ]
        }
    ], 
    "scene" : 0, 
    "scenes" : [
        {
            "name" : "Scene", 
            "nodes" : [
                0
            ]
        }
    ]
}
