{
    "accessors" : [
        {
            "bufferView" : 0, 
            "componentType" : 5121, 
            "count" : 144, 
            "max" : [
                95
            ], 
            "min" : [
                0
            ], 
            "type" : "SCALAR"
        }, 
        {
            "bufferView" : 1, 
            "componentType" : 5126, 
            "count" : 96, 
            "max" : [
                1.4912664890289307, 
                1.3798010349273682, 
                1.349103331565857
            ], 
            "min" : [
                -1.972373366355896, 
                -1.353683352470398, 
                -1.4282735586166382
            ], 
            "type" : "VEC3"
        }, 
        {
            "bufferView" : 2, 
            "componentType" : 5126, 
            "count" : 96, 
            "max" : [
                0.9335612058639526, 
                0.9621875882148743, 
                0.964659571647644
            ], 
            "min" : [
                -0.8569292426109314, 
                -0.9978026747703552, 
                -0.9907223582267761
            ], 
            "type" : "VEC3"
        }, 
        {
            "bufferView" : 3, 
            "componentType" : 5126, 
            "count" : 96, 
            "max" : [
                0.4728439748287201, 
                0.043285489082336426
            ], 
            "min" : [
                0.4517373740673065, 
                0.02217888832092285
            ], 
            "type" : "VEC2"
        }
    ], 
    "asset" : {
        "generator" : "Khronos Blender glTF 2.0 exporter", 
        "version" : "2.0"
    }, 
    "bufferViews" : [
        {
            "buffer" : 0, 
            "byteLength" : 144, 
            "byteOffset" : 0, 
            "target" : 34963
        }, 
        {
            "buffer" : 0, 
            "byteLength" : 1152, 
            "byteOffset" : 144, 
            "target" : 34962
        }, 
        {
            "buffer" : 0, 
            "byteLength" : 1152, 
            "byteOffset" : 1296, 
            "target" : 34962
        }, 
        {
            "buffer" : 0, 
            "byteLength" : 768, 
            "byteOffset" : 2448, 
            "target" : 34962
        }
    ], 
    "buffers" : [
        {
            "byteLength" : 3216, 
            "uri" : "Rock_10.bin"
        }
    ], 
    "meshes" : [
        {
            "name" : "Rock_10", 
            "primitives" : [
                {
                    "attributes" : {
                        "NORMAL" : 2, 
                        "POSITION" : 1, 
                        "TEXCOORD_0" : 3
                    }, 
                    "indices" : 0
                }
            ]
        }
    ], 
    "nodes" : [
        {
            "mesh" : 0, 
            "name" : "Rock_10", 
            "rotation" : [
                0.0, 
                -0.5546869039535522, 
                -0.0, 
                0.8320591449737549
            ], 
            "translation" : [
                31.103118896484375, 
                -0.12577104568481445, 
                13.732328414916992
            ]
        }
    ], 
    "scene" : 0, 
    "scenes" : [
        {
            "name" : "Scene", 
            "nodes" : [
                0
            ]
        }
    ]
}
