{
    "accessors" : [
        {
            "bufferView" : 0, 
            "componentType" : 5121, 
            "count" : 144, 
            "max" : [
                95
            ], 
            "min" : [
                0
            ], 
            "type" : "SCALAR"
        }, 
        {
            "bufferView" : 1, 
            "componentType" : 5126, 
            "count" : 96, 
            "max" : [
                1.6101438999176025, 
                1.0, 
                1.1838579177856445
            ], 
            "min" : [
                -2.2605881690979004, 
                -1.164047122001648, 
                -2.438084602355957
            ], 
            "type" : "VEC3"
        }, 
        {
            "bufferView" : 2, 
            "componentType" : 5126, 
            "count" : 96, 
            "max" : [
                0.99981689453125, 
                0.9978637099266052, 
                0.9990233778953552
            ], 
            "min" : [
                -0.9953306913375854, 
                -0.9990233778953552, 
                -0.9349040389060974
            ], 
            "type" : "VEC3"
        }, 
        {
            "bufferView" : 3, 
            "componentType" : 5126, 
            "count" : 96, 
            "max" : [
                0.48733484745025635, 
                0.03646242618560791
            ], 
            "min" : [
                0.4733163118362427, 
                0.02244389057159424
            ], 
            "type" : "VEC2"
        }
    ], 
    "asset" : {
        "generator" : "Khronos Blender glTF 2.0 exporter", 
        "version" : "2.0"
    }, 
    "bufferViews" : [
        {
            "buffer" : 0, 
            "byteLength" : 144, 
            "byteOffset" : 0, 
            "target" : 34963
        }, 
        {
            "buffer" : 0, 
            "byteLength" : 1152, 
            "byteOffset" : 144, 
            "target" : 34962
        }, 
        {
            "buffer" : 0, 
            "byteLength" : 1152, 
            "byteOffset" : 1296, 
            "target" : 34962
        }, 
        {
            "buffer" : 0, 
            "byteLength" : 768, 
            "byteOffset" : 2448, 
            "target" : 34962
        }
    ], 
    "buffers" : [
        {
            "byteLength" : 3216, 
            "uri" : "Rock_14.bin"
        }
    ], 
    "meshes" : [
        {
            "name" : "Rock_14", 
            "primitives" : [
                {
                    "attributes" : {
                        "NORMAL" : 2, 
                        "POSITION" : 1, 
                        "TEXCOORD_0" : 3
                    }, 
                    "indices" : 0
                }
            ]
        }
    ], 
    "nodes" : [
        {
            "mesh" : 0, 
            "name" : "Rock_14", 
            "translation" : [
                41.13695526123047, 
                -0.1933426856994629, 
                -3.2435216903686523
            ]
        }
    ], 
    "scene" : 0, 
    "scenes" : [
        {
            "name" : "Scene", 
            "nodes" : [
                0
            ]
        }
    ]
}
