{
    "accessors" : [
        {
            "bufferView" : 0, 
            "componentType" : 5121, 
            "count" : 252, 
            "max" : [
                167
            ], 
            "min" : [
                0
            ], 
            "type" : "SCALAR"
        }, 
        {
            "bufferView" : 1, 
            "componentType" : 5126, 
            "count" : 168, 
            "max" : [
                1.834084391593933, 
                2.1663081645965576, 
                2.140047550201416
            ], 
            "min" : [
                -1.9153345823287964, 
                -1.8340847492218018, 
                -2.0409622192382812
            ], 
            "type" : "VEC3"
        }, 
        {
            "bufferView" : 2, 
            "componentType" : 5126, 
            "count" : 168, 
            "max" : [
                0.999908447265625, 
                0.99945068359375, 
                0.9778741002082825
            ], 
            "min" : [
                -0.9963682889938354, 
                -0.999969482421875, 
                -0.9989928603172302
            ], 
            "type" : "VEC3"
        }, 
        {
            "bufferView" : 3, 
            "componentType" : 5126, 
            "count" : 168, 
            "max" : [
                0.48590728640556335, 
                0.04979074001312256
            ], 
            "min" : [
                0.45834848284721375, 
                0.02223193645477295
            ], 
            "type" : "VEC2"
        }
    ], 
    "asset" : {
        "generator" : "Khronos Blender glTF 2.0 exporter", 
        "version" : "2.0"
    }, 
    "bufferViews" : [
        {
            "buffer" : 0, 
            "byteLength" : 252, 
            "byteOffset" : 0, 
            "target" : 34963
        }, 
        {
            "buffer" : 0, 
            "byteLength" : 2016, 
            "byteOffset" : 252, 
            "target" : 34962
        }, 
        {
            "buffer" : 0, 
            "byteLength" : 2016, 
            "byteOffset" : 2268, 
            "target" : 34962
        }, 
        {
            "buffer" : 0, 
            "byteLength" : 1344, 
            "byteOffset" : 4284, 
            "target" : 34962
        }
    ], 
    "buffers" : [
        {
            "byteLength" : 5628, 
            "uri" : "Rock_25.bin"
        }
    ], 
    "meshes" : [
        {
            "name" : "Rock_25", 
            "primitives" : [
                {
                    "attributes" : {
                        "NORMAL" : 2, 
                        "POSITION" : 1, 
                        "TEXCOORD_0" : 3
                    }, 
                    "indices" : 0
                }
            ]
        }
    ], 
    "nodes" : [
        {
            "mesh" : 0, 
            "name" : "Rock_25", 
            "rotation" : [
                0.0, 
                0.3242179751396179, 
                -0.0, 
                0.9459823966026306
            ], 
            "translation" : [
                28.05986785888672, 
                0.41545912623405457, 
                -0.5883960723876953
            ]
        }
    ], 
    "scene" : 0, 
    "scenes" : [
        {
            "name" : "Scene", 
            "nodes" : [
                0
            ]
        }
    ]
}
