{
    "accessors" : [
        {
            "bufferView" : 0, 
            "componentType" : 5121, 
            "count" : 144, 
            "max" : [
                95
            ], 
            "min" : [
                0
            ], 
            "type" : "SCALAR"
        }, 
        {
            "bufferView" : 1, 
            "componentType" : 5126, 
            "count" : 96, 
            "max" : [
                3.2647132873535156, 
                2.0664403438568115, 
                2.3400702476501465
            ], 
            "min" : [
                -3.734541893005371, 
                -1.91537606716156, 
                -3.1111834049224854
            ], 
            "type" : "VEC3"
        }, 
        {
            "bufferView" : 2, 
            "componentType" : 5126, 
            "count" : 96, 
            "max" : [
                0.981810986995697, 
                0.9785454869270325, 
                0.9621265530586243
            ], 
            "min" : [
                -0.887386679649353, 
                -0.9860225319862366, 
                -0.9928281307220459
            ], 
            "type" : "VEC3"
        }, 
        {
            "bufferView" : 3, 
            "componentType" : 5126, 
            "count" : 96, 
            "max" : [
                0.4151369631290436, 
                0.0462414026260376
            ], 
            "min" : [
                0.39795589447021484, 
                0.029060304164886475
            ], 
            "type" : "VEC2"
        }
    ], 
    "asset" : {
        "generator" : "Khronos Blender glTF 2.0 exporter", 
        "version" : "2.0"
    }, 
    "bufferViews" : [
        {
            "buffer" : 0, 
            "byteLength" : 144, 
            "byteOffset" : 0, 
            "target" : 34963
        }, 
        {
            "buffer" : 0, 
            "byteLength" : 1152, 
            "byteOffset" : 144, 
            "target" : 34962
        }, 
        {
            "buffer" : 0, 
            "byteLength" : 1152, 
            "byteOffset" : 1296, 
            "target" : 34962
        }, 
        {
            "buffer" : 0, 
            "byteLength" : 768, 
            "byteOffset" : 2448, 
            "target" : 34962
        }
    ], 
    "buffers" : [
        {
            "byteLength" : 3216, 
            "uri" : "Rock_22.bin"
        }
    ], 
    "meshes" : [
        {
            "name" : "Rock_22", 
            "primitives" : [
                {
                    "attributes" : {
                        "NORMAL" : 2, 
                        "POSITION" : 1, 
                        "TEXCOORD_0" : 3
                    }, 
                    "indices" : 0
                }
            ]
        }
    ], 
    "nodes" : [
        {
            "mesh" : 0, 
            "name" : "Rock_22", 
            "translation" : [
                -35.14336395263672, 
                0.41545912623405457, 
                -17.02737808227539
            ]
        }
    ], 
    "scene" : 0, 
    "scenes" : [
        {
            "name" : "Scene", 
            "nodes" : [
                0
            ]
        }
    ]
}
